 <svg  viewBox="0 0 92 59" fill="none" xmlns="http://www.w3.org/2000/svg" class="header-offer-logo">
                <path fill-rule="evenodd" clip-rule="evenodd" d="M34.392 0.0273437C28.3088 0.535117 26.159 2.63861 25.7903 8.44368C25.5862 11.6575 26.2338 14.1658 27.6348 15.5885C27.9516 15.9101 28.2108 16.1879 28.2108 16.2057C28.2108 16.2236 27.9568 16.4235 27.6464 16.6501C25.7595 18.0276 24.8374 20.8257 25.0235 24.6103C25.285 29.9317 27.4268 32.5775 32.2556 33.5441C33.4596 33.7852 66.5457 33.9099 66.9866 33.6751C67.5358 33.3825 67.5558 33.1962 67.5558 28.3772C67.5558 23.3619 67.5451 23.2794 66.8643 22.9952C66.5723 22.8733 65.955 22.8379 64.1158 22.8379C60.793 22.8379 60.8421 22.8075 60.5116 25.0669L60.3192 26.3828H56.5738H52.8283V16.7763V7.1699L53.4464 7.04239C55.2081 6.67909 55.1933 6.71046 55.1933 3.34823V0.712897L54.8796 0.362065L54.566 0.0112314L44.694 0.0013493C39.2645 -0.00412911 34.6285 0.00757847 34.392 0.0273437ZM44.2283 10.3294V13.182L40.1702 13.1432C35.673 13.1001 35.5111 13.0783 34.8626 12.4303C33.9555 11.5238 33.8254 8.90655 34.6467 8.08597C35.1772 7.55586 35.7332 7.49602 40.2239 7.48593L44.2283 7.4769V10.3294ZM44.2283 23.224V26.403L39.8477 26.3599C34.9881 26.312 34.6763 26.2684 33.9757 25.5377C33.1793 24.7071 33.1428 22.0861 33.9124 21.006C34.4976 20.1848 35.2359 20.0749 40.2777 20.0581L44.2283 20.045V23.224Z" fill="white"/>
                <path d="M2.638 57.112C2.25533 57.112 1.90767 57.0513 1.595 56.93C1.287 56.804 1.03267 56.622 0.832 56.384L1.721 55.334C1.85167 55.4973 1.98 55.6187 2.106 55.698C2.232 55.7773 2.36267 55.817 2.498 55.817C2.67067 55.817 2.80133 55.7657 2.89 55.663C2.98333 55.5603 3.03 55.4087 3.03 55.208V53.346H1.364V52.1H4.661V55.11C4.661 55.7773 4.48833 56.279 4.143 56.615C3.80233 56.9463 3.30067 57.112 2.638 57.112ZM15.0925 55.754V57H11.0185V52.1H15.0015V53.346H12.6425V53.92H14.7145V55.11H12.6425V55.754H15.0925ZM29.2331 52.1L27.6651 57H25.8941L25.1031 54.382L24.2701 57H22.4991L20.9311 52.1H22.6321L23.4861 54.886L24.3891 52.1H25.9081L26.7621 54.921L27.6651 52.1H29.2331ZM39.274 55.754V57H35.2V52.1H39.183V53.346H36.824V53.92H38.896V55.11H36.824V55.754H39.274ZM45.5099 52.1H47.1619V55.719H49.3739V57H45.5099V52.1ZM55.4303 52.1H57.0823V55.719H59.2943V57H55.4303V52.1ZM69.4246 55.754V57H65.3506V52.1H69.3336V53.346H66.9746V53.92H69.0466V55.11H66.9746V55.754H69.4246ZM77.7605 55.768H77.3125V57H75.6605V52.1H78.0195C78.4722 52.1 78.8665 52.1747 79.2025 52.324C79.5385 52.4733 79.7975 52.688 79.9795 52.968C80.1615 53.248 80.2525 53.5747 80.2525 53.948C80.2525 54.298 80.1732 54.6037 80.0145 54.865C79.8559 55.1263 79.6272 55.334 79.3285 55.488L80.3575 57H78.5935L77.7605 55.768ZM78.5865 53.948C78.5865 53.766 78.5305 53.626 78.4185 53.528C78.3065 53.4253 78.1385 53.374 77.9145 53.374H77.3125V54.522H77.9145C78.1385 54.522 78.3065 54.473 78.4185 54.375C78.5305 54.2723 78.5865 54.13 78.5865 53.948ZM89.32 55.222V57H87.668V55.201L85.82 52.1H87.563L88.564 53.794L89.572 52.1H91.168L89.32 55.222Z" fill="white"/>
            </svg> 