<svg width="91" height="55" viewBox="0 0 91 55" fill="none" xmlns="http://www.w3.org/2000/svg">
<path fill-rule="evenodd" clip-rule="evenodd" d="M33.1637 0.0273437C27.0805 0.535117 24.9308 2.63861 24.562 8.44368C24.3579 11.6575 25.0055 14.1658 26.4065 15.5885C26.7233 15.9101 26.9825 16.1879 26.9825 16.2057C26.9825 16.2236 26.7285 16.4235 26.4181 16.6501C24.5312 18.0276 23.6091 20.8257 23.7952 24.6103C24.0567 29.9317 26.1985 32.5774 31.0273 33.5441C32.2313 33.7852 65.3174 33.9099 65.7583 33.6751C66.3075 33.3825 66.3275 33.1962 66.3275 28.3772C66.3275 23.3619 66.3169 23.2794 65.6361 22.9952C65.344 22.8733 64.7267 22.8379 62.8875 22.8379C59.5647 22.8379 59.6138 22.8075 59.2833 25.0669L59.0909 26.3828H55.3455H51.6V16.7763V7.1699L52.2181 7.04239C53.9798 6.67909 53.965 6.71046 53.965 3.34823V0.712897L53.6513 0.362065L53.3377 0.0112314L43.4657 0.0013493C38.0362 -0.00412911 33.4002 0.00757847 33.1637 0.0273437ZM43 10.3294V13.182L38.9419 13.1432C34.4447 13.1001 34.2828 13.0783 33.6343 12.4303C32.7272 11.5238 32.5971 8.90655 33.4184 8.08597C33.9489 7.55586 34.5049 7.49602 38.9956 7.48593L43 7.4769V10.3294ZM43 23.224V26.403L38.6194 26.3599C33.7598 26.312 33.448 26.2684 32.7474 25.5377C31.951 24.7071 31.9145 22.0861 32.6841 21.006C33.2693 20.1848 34.0076 20.0749 39.0494 20.0581L43 20.045V23.224ZM0.862257 51.1018C-0.0253704 51.4556 -0.0324654 52.2698 0.84882 52.665C1.12477 52.7888 1.1252 52.7907 0.878598 52.7993C0.57147 52.81 0 53.3598 0 53.6446C0 54.415 0.748629 54.6342 3.38012 54.6342H5.375V52.808V50.9819L3.25187 50.9887C2.0841 50.9924 1.00878 51.0433 0.862257 51.1018ZM13.115 52.808V54.6342H15.5337H17.9525V54.1508V53.6674H16.2325C14.5915 53.6674 14.5125 53.6576 14.5125 53.4552C14.5125 53.2544 14.6014 53.2416 16.2035 53.2135L17.8944 53.184L17.8966 52.808L17.8987 52.4321L16.2325 52.3783C14.6051 52.3259 14.5655 52.319 14.5318 52.0829L14.4976 51.8412H16.225H17.9525V51.4116V50.9819H15.5337H13.115V52.808ZM25.6925 51.4116V51.8412H27.2727C28.2523 51.8412 28.8142 51.8794 28.7509 51.9415C28.6948 51.9967 27.9957 52.4486 27.1975 52.9457C25.7989 53.817 25.7451 53.8641 25.7129 54.242L25.6795 54.6342H28.5348H31.39V54.1508V53.6674H29.7585H28.1269L29.7316 52.6696C31.2119 51.749 31.3388 51.6449 31.3699 51.3268L31.4037 50.9819H28.548H25.6925V51.4116ZM39.2375 52.808V54.6342H41.4412H43.645V54.1508V53.6674H42.14H40.635V52.3246V50.9819H39.9362H39.2375V52.808ZM51.385 52.808V54.6342H52.0837H52.7825V52.808V50.9819H52.0837H51.385V52.808ZM60.845 52.808V54.6342H61.5437H62.2425L62.2439 54.2313C62.2453 53.8597 62.2931 53.7976 62.862 53.4284L63.4787 53.0282L64.2874 53.8312L65.096 54.6342H65.7655C66.1337 54.6342 66.435 54.6048 66.435 54.569C66.435 54.5331 65.9736 54.0674 65.4096 53.5341C64.8456 53.0007 64.3982 52.5241 64.4152 52.4749C64.4323 52.4258 64.9031 52.0697 65.4615 51.6838L66.4767 50.9819L65.569 50.9841L64.6612 50.9864L63.4787 51.8431L62.2962 52.6997L62.2651 51.8408L62.2338 50.9819H61.5394H60.845V52.808ZM74.175 52.808V54.6342H74.8737H75.5725V52.808V50.9819H74.8737H74.175V52.808ZM83.6489 51.4427C83.9227 51.6914 84.5361 52.2333 85.0122 52.6469L85.8779 53.3988L85.8852 54.0165L85.8925 54.6342H86.5912H87.29L87.2943 54.0165L87.2986 53.3988L88.6614 52.2172L90.0242 51.0356L89.1829 51.004L88.3416 50.9724L87.503 51.7291C87.0417 52.1452 86.6301 52.4858 86.5882 52.4858C86.5464 52.4858 86.1366 52.1474 85.6775 51.7338L84.8428 50.9819L83.9971 50.9862L83.1512 50.9904L83.6489 51.4427ZM3.95815 52.0829C3.92558 52.312 3.87011 52.326 2.9025 52.3519C1.83373 52.3805 1.53693 52.3004 1.64722 52.0132C1.70205 51.8705 1.90716 51.8412 2.85283 51.8412C3.9732 51.8412 3.99191 51.8453 3.95815 52.0829ZM3.9775 53.4525C3.9775 53.73 1.57563 53.7915 1.47017 53.5168C1.3732 53.2643 1.49608 53.2377 2.7592 53.2377C3.9058 53.2377 3.9775 53.2504 3.9775 53.4525Z" fill="white"/>
</svg>
